<?xml version="1.0" standalone="no"?>
<svg xmlns="http://www.w3.org/2000/svg" width="300" height="300"><defs><clipPath id="clip-path-dot-color"><rect x="5" y="85" width="10" height="10" transform="rotate(0,10,90)"/><rect x="5" y="105" width="10" height="10" transform="rotate(0,10,110)"/><rect x="5" y="125" width="10" height="10" transform="rotate(0,10,130)"/><rect x="5" y="135" width="10" height="10" transform="rotate(0,10,140)"/><rect x="5" y="145" width="10" height="10" transform="rotate(0,10,150)"/><rect x="5" y="185" width="10" height="10" transform="rotate(0,10,190)"/><rect x="15" y="115" width="10" height="10" transform="rotate(0,20,120)"/><rect x="15" y="135" width="10" height="10" transform="rotate(0,20,140)"/><rect x="15" y="155" width="10" height="10" transform="rotate(0,20,160)"/><rect x="15" y="165" width="10" height="10" transform="rotate(0,20,170)"/><rect x="15" y="195" width="10" height="10" transform="rotate(0,20,200)"/><rect x="25" y="85" width="10" height="10" transform="rotate(0,30,90)"/><rect x="25" y="95" width="10" height="10" transform="rotate(0,30,100)"/><rect x="25" y="115" width="10" height="10" transform="rotate(0,30,120)"/><rect x="25" y="125" width="10" height="10" transform="rotate(0,30,130)"/><rect x="25" y="135" width="10" height="10" transform="rotate(0,30,140)"/><rect x="25" y="155" width="10" height="10" transform="rotate(0,30,160)"/><rect x="25" y="165" width="10" height="10" transform="rotate(0,30,170)"/><rect x="25" y="175" width="10" height="10" transform="rotate(0,30,180)"/><rect x="25" y="195" width="10" height="10" transform="rotate(0,30,200)"/><rect x="25" y="205" width="10" height="10" transform="rotate(0,30,210)"/><rect x="35" y="85" width="10" height="10" transform="rotate(0,40,90)"/><rect x="35" y="125" width="10" height="10" transform="rotate(0,40,130)"/><rect x="35" y="145" width="10" height="10" transform="rotate(0,40,150)"/><rect x="35" y="165" width="10" height="10" transform="rotate(0,40,170)"/><rect x="35" y="185" width="10" height="10" transform="rotate(0,40,190)"/><rect x="35" y="205" width="10" height="10" transform="rotate(0,40,210)"/><rect x="45" y="105" width="10" height="10" transform="rotate(0,50,110)"/><rect x="45" y="115" width="10" height="10" transform="rotate(0,50,120)"/><rect x="45" y="145" width="10" height="10" transform="rotate(0,50,150)"/><rect x="45" y="155" width="10" height="10" transform="rotate(0,50,160)"/><rect x="45" y="185" width="10" height="10" transform="rotate(0,50,190)"/><rect x="55" y="85" width="10" height="10" transform="rotate(0,60,90)"/><rect x="55" y="95" width="10" height="10" transform="rotate(0,60,100)"/><rect x="55" y="115" width="10" height="10" transform="rotate(0,60,120)"/><rect x="55" y="125" width="10" height="10" transform="rotate(0,60,130)"/><rect x="55" y="135" width="10" height="10" transform="rotate(0,60,140)"/><rect x="55" y="145" width="10" height="10" transform="rotate(0,60,150)"/><rect x="55" y="165" width="10" height="10" transform="rotate(0,60,170)"/><rect x="55" y="195" width="10" height="10" transform="rotate(0,60,200)"/><rect x="65" y="85" width="10" height="10" transform="rotate(0,70,90)"/><rect x="65" y="105" width="10" height="10" transform="rotate(0,70,110)"/><rect x="65" y="125" width="10" height="10" transform="rotate(0,70,130)"/><rect x="65" y="145" width="10" height="10" transform="rotate(0,70,150)"/><rect x="65" y="165" width="10" height="10" transform="rotate(0,70,170)"/><rect x="65" y="185" width="10" height="10" transform="rotate(0,70,190)"/><rect x="65" y="205" width="10" height="10" transform="rotate(0,70,210)"/><rect x="75" y="85" width="10" height="10" transform="rotate(0,80,90)"/><rect x="75" y="105" width="10" height="10" transform="rotate(0,80,110)"/><rect x="75" y="115" width="10" height="10" transform="rotate(0,80,120)"/><rect x="75" y="135" width="10" height="10" transform="rotate(0,80,140)"/><rect x="75" y="145" width="10" height="10" transform="rotate(0,80,150)"/><rect x="75" y="165" width="10" height="10" transform="rotate(0,80,170)"/><rect x="75" y="175" width="10" height="10" transform="rotate(0,80,180)"/><rect x="75" y="185" width="10" height="10" transform="rotate(0,80,190)"/><rect x="85" y="15" width="10" height="10" transform="rotate(0,90,20)"/><rect x="85" y="35" width="10" height="10" transform="rotate(0,90,40)"/><rect x="85" y="55" width="10" height="10" transform="rotate(0,90,60)"/><rect x="85" y="65" width="10" height="10" transform="rotate(0,90,70)"/><rect x="85" y="75" width="10" height="10" transform="rotate(0,90,80)"/><rect x="85" y="85" width="10" height="10" transform="rotate(0,90,90)"/><rect x="85" y="95" width="10" height="10" transform="rotate(0,90,100)"/><rect x="85" y="105" width="10" height="10" transform="rotate(0,90,110)"/><rect x="85" y="115" width="10" height="10" transform="rotate(0,90,120)"/><rect x="85" y="145" width="10" height="10" transform="rotate(0,90,150)"/><rect x="85" y="155" width="10" height="10" transform="rotate(0,90,160)"/><rect x="85" y="165" width="10" height="10" transform="rotate(0,90,170)"/><rect x="85" y="175" width="10" height="10" transform="rotate(0,90,180)"/><rect x="85" y="185" width="10" height="10" transform="rotate(0,90,190)"/><rect x="85" y="195" width="10" height="10" transform="rotate(0,90,200)"/><rect x="85" y="215" width="10" height="10" transform="rotate(0,90,220)"/><rect x="85" y="225" width="10" height="10" transform="rotate(0,90,230)"/><rect x="85" y="235" width="10" height="10" transform="rotate(0,90,240)"/><rect x="85" y="255" width="10" height="10" transform="rotate(0,90,260)"/><rect x="85" y="265" width="10" height="10" transform="rotate(0,90,270)"/><rect x="85" y="285" width="10" height="10" transform="rotate(0,90,290)"/><rect x="95" y="5" width="10" height="10" transform="rotate(0,100,10)"/><rect x="95" y="15" width="10" height="10" transform="rotate(0,100,20)"/><rect x="95" y="35" width="10" height="10" transform="rotate(0,100,40)"/><rect x="95" y="45" width="10" height="10" transform="rotate(0,100,50)"/><rect x="95" y="85" width="10" height="10" transform="rotate(0,100,90)"/><rect x="95" y="105" width="10" height="10" transform="rotate(0,100,110)"/><rect x="95" y="135" width="10" height="10" transform="rotate(0,100,140)"/><rect x="95" y="145" width="10" height="10" transform="rotate(0,100,150)"/><rect x="95" y="175" width="10" height="10" transform="rotate(0,100,180)"/><rect x="95" y="185" width="10" height="10" transform="rotate(0,100,190)"/><rect x="95" y="195" width="10" height="10" transform="rotate(0,100,200)"/><rect x="95" y="215" width="10" height="10" transform="rotate(0,100,220)"/><rect x="95" y="225" width="10" height="10" transform="rotate(0,100,230)"/><rect x="95" y="285" width="10" height="10" transform="rotate(0,100,290)"/><rect x="105" y="5" width="10" height="10" transform="rotate(0,110,10)"/><rect x="105" y="25" width="10" height="10" transform="rotate(0,110,30)"/><rect x="105" y="45" width="10" height="10" transform="rotate(0,110,50)"/><rect x="105" y="65" width="10" height="10" transform="rotate(0,110,70)"/><rect x="105" y="75" width="10" height="10" transform="rotate(0,110,80)"/><rect x="105" y="85" width="10" height="10" transform="rotate(0,110,90)"/><rect x="105" y="105" width="10" height="10" transform="rotate(0,110,110)"/><rect x="105" y="115" width="10" height="10" transform="rotate(0,110,120)"/><rect x="105" y="125" width="10" height="10" transform="rotate(0,110,130)"/><rect x="105" y="175" width="10" height="10" transform="rotate(0,110,180)"/><rect x="105" y="185" width="10" height="10" transform="rotate(0,110,190)"/><rect x="105" y="195" width="10" height="10" transform="rotate(0,110,200)"/><rect x="105" y="225" width="10" height="10" transform="rotate(0,110,230)"/><rect x="105" y="245" width="10" height="10" transform="rotate(0,110,250)"/><rect x="105" y="275" width="10" height="10" transform="rotate(0,110,280)"/><rect x="115" y="15" width="10" height="10" transform="rotate(0,120,20)"/><rect x="115" y="35" width="10" height="10" transform="rotate(0,120,40)"/><rect x="115" y="55" width="10" height="10" transform="rotate(0,120,60)"/><rect x="115" y="105" width="10" height="10" transform="rotate(0,120,110)"/><rect x="115" y="115" width="10" height="10" transform="rotate(0,120,120)"/><rect x="115" y="155" width="10" height="10" transform="rotate(0,120,160)"/><rect x="115" y="165" width="10" height="10" transform="rotate(0,120,170)"/><rect x="115" y="185" width="10" height="10" transform="rotate(0,120,190)"/><rect x="115" y="205" width="10" height="10" transform="rotate(0,120,210)"/><rect x="115" y="215" width="10" height="10" transform="rotate(0,120,220)"/><rect x="115" y="225" width="10" height="10" transform="rotate(0,120,230)"/><rect x="115" y="255" width="10" height="10" transform="rotate(0,120,260)"/><rect x="115" y="265" width="10" height="10" transform="rotate(0,120,270)"/><rect x="115" y="275" width="10" height="10" transform="rotate(0,120,280)"/><rect x="125" y="5" width="10" height="10" transform="rotate(0,130,10)"/><rect x="125" y="15" width="10" height="10" transform="rotate(0,130,20)"/><rect x="125" y="35" width="10" height="10" transform="rotate(0,130,40)"/><rect x="125" y="45" width="10" height="10" transform="rotate(0,130,50)"/><rect x="125" y="65" width="10" height="10" transform="rotate(0,130,70)"/><rect x="125" y="75" width="10" height="10" transform="rotate(0,130,80)"/><rect x="125" y="85" width="10" height="10" transform="rotate(0,130,90)"/><rect x="125" y="95" width="10" height="10" transform="rotate(0,130,100)"/><rect x="125" y="115" width="10" height="10" transform="rotate(0,130,120)"/><rect x="125" y="125" width="10" height="10" transform="rotate(0,130,130)"/><rect x="125" y="155" width="10" height="10" transform="rotate(0,130,160)"/><rect x="125" y="175" width="10" height="10" transform="rotate(0,130,180)"/><rect x="125" y="205" width="10" height="10" transform="rotate(0,130,210)"/><rect x="125" y="225" width="10" height="10" transform="rotate(0,130,230)"/><rect x="125" y="235" width="10" height="10" transform="rotate(0,130,240)"/><rect x="135" y="25" width="10" height="10" transform="rotate(0,140,30)"/><rect x="135" y="35" width="10" height="10" transform="rotate(0,140,40)"/><rect x="135" y="75" width="10" height="10" transform="rotate(0,140,80)"/><rect x="135" y="95" width="10" height="10" transform="rotate(0,140,100)"/><rect x="135" y="125" width="10" height="10" transform="rotate(0,140,130)"/><rect x="135" y="145" width="10" height="10" transform="rotate(0,140,150)"/><rect x="135" y="165" width="10" height="10" transform="rotate(0,140,170)"/><rect x="135" y="195" width="10" height="10" transform="rotate(0,140,200)"/><rect x="135" y="205" width="10" height="10" transform="rotate(0,140,210)"/><rect x="135" y="215" width="10" height="10" transform="rotate(0,140,220)"/><rect x="135" y="235" width="10" height="10" transform="rotate(0,140,240)"/><rect x="135" y="255" width="10" height="10" transform="rotate(0,140,260)"/><rect x="135" y="275" width="10" height="10" transform="rotate(0,140,280)"/><rect x="145" y="15" width="10" height="10" transform="rotate(0,150,20)"/><rect x="145" y="35" width="10" height="10" transform="rotate(0,150,40)"/><rect x="145" y="45" width="10" height="10" transform="rotate(0,150,50)"/><rect x="145" y="65" width="10" height="10" transform="rotate(0,150,70)"/><rect x="145" y="75" width="10" height="10" transform="rotate(0,150,80)"/><rect x="145" y="85" width="10" height="10" transform="rotate(0,150,90)"/><rect x="145" y="95" width="10" height="10" transform="rotate(0,150,100)"/><rect x="145" y="135" width="10" height="10" transform="rotate(0,150,140)"/><rect x="145" y="145" width="10" height="10" transform="rotate(0,150,150)"/><rect x="145" y="155" width="10" height="10" transform="rotate(0,150,160)"/><rect x="145" y="215" width="10" height="10" transform="rotate(0,150,220)"/><rect x="145" y="225" width="10" height="10" transform="rotate(0,150,230)"/><rect x="145" y="275" width="10" height="10" transform="rotate(0,150,280)"/><rect x="145" y="285" width="10" height="10" transform="rotate(0,150,290)"/><rect x="155" y="5" width="10" height="10" transform="rotate(0,160,10)"/><rect x="155" y="15" width="10" height="10" transform="rotate(0,160,20)"/><rect x="155" y="35" width="10" height="10" transform="rotate(0,160,40)"/><rect x="155" y="55" width="10" height="10" transform="rotate(0,160,60)"/><rect x="155" y="75" width="10" height="10" transform="rotate(0,160,80)"/><rect x="155" y="95" width="10" height="10" transform="rotate(0,160,100)"/><rect x="155" y="115" width="10" height="10" transform="rotate(0,160,120)"/><rect x="155" y="125" width="10" height="10" transform="rotate(0,160,130)"/><rect x="155" y="135" width="10" height="10" transform="rotate(0,160,140)"/><rect x="155" y="165" width="10" height="10" transform="rotate(0,160,170)"/><rect x="155" y="195" width="10" height="10" transform="rotate(0,160,200)"/><rect x="155" y="205" width="10" height="10" transform="rotate(0,160,210)"/><rect x="155" y="215" width="10" height="10" transform="rotate(0,160,220)"/><rect x="155" y="235" width="10" height="10" transform="rotate(0,160,240)"/><rect x="155" y="285" width="10" height="10" transform="rotate(0,160,290)"/><rect x="165" y="5" width="10" height="10" transform="rotate(0,170,10)"/><rect x="165" y="65" width="10" height="10" transform="rotate(0,170,70)"/><rect x="165" y="75" width="10" height="10" transform="rotate(0,170,80)"/><rect x="165" y="95" width="10" height="10" transform="rotate(0,170,100)"/><rect x="165" y="105" width="10" height="10" transform="rotate(0,170,110)"/><rect x="165" y="115" width="10" height="10" transform="rotate(0,170,120)"/><rect x="165" y="125" width="10" height="10" transform="rotate(0,170,130)"/><rect x="165" y="135" width="10" height="10" transform="rotate(0,170,140)"/><rect x="165" y="145" width="10" height="10" transform="rotate(0,170,150)"/><rect x="165" y="165" width="10" height="10" transform="rotate(0,170,170)"/><rect x="165" y="195" width="10" height="10" transform="rotate(0,170,200)"/><rect x="165" y="215" width="10" height="10" transform="rotate(0,170,220)"/><rect x="165" y="235" width="10" height="10" transform="rotate(0,170,240)"/><rect x="165" y="275" width="10" height="10" transform="rotate(0,170,280)"/><rect x="175" y="25" width="10" height="10" transform="rotate(0,180,30)"/><rect x="175" y="35" width="10" height="10" transform="rotate(0,180,40)"/><rect x="175" y="45" width="10" height="10" transform="rotate(0,180,50)"/><rect x="175" y="105" width="10" height="10" transform="rotate(0,180,110)"/><rect x="175" y="115" width="10" height="10" transform="rotate(0,180,120)"/><rect x="175" y="145" width="10" height="10" transform="rotate(0,180,150)"/><rect x="175" y="155" width="10" height="10" transform="rotate(0,180,160)"/><rect x="175" y="175" width="10" height="10" transform="rotate(0,180,180)"/><rect x="175" y="215" width="10" height="10" transform="rotate(0,180,220)"/><rect x="175" y="225" width="10" height="10" transform="rotate(0,180,230)"/><rect x="175" y="275" width="10" height="10" transform="rotate(0,180,280)"/><rect x="175" y="285" width="10" height="10" transform="rotate(0,180,290)"/><rect x="185" y="5" width="10" height="10" transform="rotate(0,190,10)"/><rect x="185" y="45" width="10" height="10" transform="rotate(0,190,50)"/><rect x="185" y="65" width="10" height="10" transform="rotate(0,190,70)"/><rect x="185" y="85" width="10" height="10" transform="rotate(0,190,90)"/><rect x="185" y="105" width="10" height="10" transform="rotate(0,190,110)"/><rect x="185" y="125" width="10" height="10" transform="rotate(0,190,130)"/><rect x="185" y="145" width="10" height="10" transform="rotate(0,190,150)"/><rect x="185" y="175" width="10" height="10" transform="rotate(0,190,180)"/><rect x="185" y="205" width="10" height="10" transform="rotate(0,190,210)"/><rect x="185" y="215" width="10" height="10" transform="rotate(0,190,220)"/><rect x="185" y="245" width="10" height="10" transform="rotate(0,190,250)"/><rect x="185" y="255" width="10" height="10" transform="rotate(0,190,260)"/><rect x="185" y="275" width="10" height="10" transform="rotate(0,190,280)"/><rect x="185" y="285" width="10" height="10" transform="rotate(0,190,290)"/><rect x="195" y="25" width="10" height="10" transform="rotate(0,200,30)"/><rect x="195" y="35" width="10" height="10" transform="rotate(0,200,40)"/><rect x="195" y="55" width="10" height="10" transform="rotate(0,200,60)"/><rect x="195" y="75" width="10" height="10" transform="rotate(0,200,80)"/><rect x="195" y="105" width="10" height="10" transform="rotate(0,200,110)"/><rect x="195" y="115" width="10" height="10" transform="rotate(0,200,120)"/><rect x="195" y="155" width="10" height="10" transform="rotate(0,200,160)"/><rect x="195" y="165" width="10" height="10" transform="rotate(0,200,170)"/><rect x="195" y="175" width="10" height="10" transform="rotate(0,200,180)"/><rect x="195" y="185" width="10" height="10" transform="rotate(0,200,190)"/><rect x="195" y="195" width="10" height="10" transform="rotate(0,200,200)"/><rect x="195" y="205" width="10" height="10" transform="rotate(0,200,210)"/><rect x="195" y="235" width="10" height="10" transform="rotate(0,200,240)"/><rect x="195" y="275" width="10" height="10" transform="rotate(0,200,280)"/><rect x="205" y="5" width="10" height="10" transform="rotate(0,210,10)"/><rect x="205" y="25" width="10" height="10" transform="rotate(0,210,30)"/><rect x="205" y="35" width="10" height="10" transform="rotate(0,210,40)"/><rect x="205" y="65" width="10" height="10" transform="rotate(0,210,70)"/><rect x="205" y="95" width="10" height="10" transform="rotate(0,210,100)"/><rect x="205" y="105" width="10" height="10" transform="rotate(0,210,110)"/><rect x="205" y="115" width="10" height="10" transform="rotate(0,210,120)"/><rect x="205" y="125" width="10" height="10" transform="rotate(0,210,130)"/><rect x="205" y="165" width="10" height="10" transform="rotate(0,210,170)"/><rect x="205" y="205" width="10" height="10" transform="rotate(0,210,210)"/><rect x="205" y="215" width="10" height="10" transform="rotate(0,210,220)"/><rect x="205" y="225" width="10" height="10" transform="rotate(0,210,230)"/><rect x="205" y="235" width="10" height="10" transform="rotate(0,210,240)"/><rect x="205" y="245" width="10" height="10" transform="rotate(0,210,250)"/><rect x="205" y="255" width="10" height="10" transform="rotate(0,210,260)"/><rect x="205" y="265" width="10" height="10" transform="rotate(0,210,270)"/><rect x="215" y="85" width="10" height="10" transform="rotate(0,220,90)"/><rect x="215" y="95" width="10" height="10" transform="rotate(0,220,100)"/><rect x="215" y="125" width="10" height="10" transform="rotate(0,220,130)"/><rect x="215" y="135" width="10" height="10" transform="rotate(0,220,140)"/><rect x="215" y="175" width="10" height="10" transform="rotate(0,220,180)"/><rect x="215" y="185" width="10" height="10" transform="rotate(0,220,190)"/><rect x="215" y="195" width="10" height="10" transform="rotate(0,220,200)"/><rect x="215" y="205" width="10" height="10" transform="rotate(0,220,210)"/><rect x="215" y="245" width="10" height="10" transform="rotate(0,220,250)"/><rect x="215" y="275" width="10" height="10" transform="rotate(0,220,280)"/><rect x="215" y="285" width="10" height="10" transform="rotate(0,220,290)"/><rect x="225" y="85" width="10" height="10" transform="rotate(0,230,90)"/><rect x="225" y="105" width="10" height="10" transform="rotate(0,230,110)"/><rect x="225" y="125" width="10" height="10" transform="rotate(0,230,130)"/><rect x="225" y="135" width="10" height="10" transform="rotate(0,230,140)"/><rect x="225" y="145" width="10" height="10" transform="rotate(0,230,150)"/><rect x="225" y="185" width="10" height="10" transform="rotate(0,230,190)"/><rect x="225" y="205" width="10" height="10" transform="rotate(0,230,210)"/><rect x="225" y="225" width="10" height="10" transform="rotate(0,230,230)"/><rect x="225" y="245" width="10" height="10" transform="rotate(0,230,250)"/><rect x="225" y="255" width="10" height="10" transform="rotate(0,230,260)"/><rect x="225" y="265" width="10" height="10" transform="rotate(0,230,270)"/><rect x="225" y="275" width="10" height="10" transform="rotate(0,230,280)"/><rect x="235" y="85" width="10" height="10" transform="rotate(0,240,90)"/><rect x="235" y="95" width="10" height="10" transform="rotate(0,240,100)"/><rect x="235" y="135" width="10" height="10" transform="rotate(0,240,140)"/><rect x="235" y="155" width="10" height="10" transform="rotate(0,240,160)"/><rect x="235" y="165" width="10" height="10" transform="rotate(0,240,170)"/><rect x="235" y="185" width="10" height="10" transform="rotate(0,240,190)"/><rect x="235" y="205" width="10" height="10" transform="rotate(0,240,210)"/><rect x="235" y="245" width="10" height="10" transform="rotate(0,240,250)"/><rect x="235" y="265" width="10" height="10" transform="rotate(0,240,270)"/><rect x="235" y="275" width="10" height="10" transform="rotate(0,240,280)"/><rect x="235" y="285" width="10" height="10" transform="rotate(0,240,290)"/><rect x="245" y="95" width="10" height="10" transform="rotate(0,250,100)"/><rect x="245" y="125" width="10" height="10" transform="rotate(0,250,130)"/><rect x="245" y="145" width="10" height="10" transform="rotate(0,250,150)"/><rect x="245" y="165" width="10" height="10" transform="rotate(0,250,170)"/><rect x="245" y="185" width="10" height="10" transform="rotate(0,250,190)"/><rect x="245" y="205" width="10" height="10" transform="rotate(0,250,210)"/><rect x="245" y="215" width="10" height="10" transform="rotate(0,250,220)"/><rect x="245" y="225" width="10" height="10" transform="rotate(0,250,230)"/><rect x="245" y="235" width="10" height="10" transform="rotate(0,250,240)"/><rect x="245" y="245" width="10" height="10" transform="rotate(0,250,250)"/><rect x="245" y="255" width="10" height="10" transform="rotate(0,250,260)"/><rect x="245" y="275" width="10" height="10" transform="rotate(0,250,280)"/><rect x="255" y="85" width="10" height="10" transform="rotate(0,260,90)"/><rect x="255" y="115" width="10" height="10" transform="rotate(0,260,120)"/><rect x="255" y="155" width="10" height="10" transform="rotate(0,260,160)"/><rect x="255" y="175" width="10" height="10" transform="rotate(0,260,180)"/><rect x="255" y="185" width="10" height="10" transform="rotate(0,260,190)"/><rect x="255" y="195" width="10" height="10" transform="rotate(0,260,200)"/><rect x="255" y="205" width="10" height="10" transform="rotate(0,260,210)"/><rect x="255" y="215" width="10" height="10" transform="rotate(0,260,220)"/><rect x="255" y="225" width="10" height="10" transform="rotate(0,260,230)"/><rect x="255" y="245" width="10" height="10" transform="rotate(0,260,250)"/><rect x="255" y="285" width="10" height="10" transform="rotate(0,260,290)"/><rect x="265" y="95" width="10" height="10" transform="rotate(0,270,100)"/><rect x="265" y="105" width="10" height="10" transform="rotate(0,270,110)"/><rect x="265" y="115" width="10" height="10" transform="rotate(0,270,120)"/><rect x="265" y="155" width="10" height="10" transform="rotate(0,270,160)"/><rect x="265" y="165" width="10" height="10" transform="rotate(0,270,170)"/><rect x="265" y="185" width="10" height="10" transform="rotate(0,270,190)"/><rect x="265" y="195" width="10" height="10" transform="rotate(0,270,200)"/><rect x="265" y="205" width="10" height="10" transform="rotate(0,270,210)"/><rect x="265" y="245" width="10" height="10" transform="rotate(0,270,250)"/><rect x="265" y="255" width="10" height="10" transform="rotate(0,270,260)"/><rect x="265" y="285" width="10" height="10" transform="rotate(0,270,290)"/><rect x="275" y="85" width="10" height="10" transform="rotate(0,280,90)"/><rect x="275" y="95" width="10" height="10" transform="rotate(0,280,100)"/><rect x="275" y="115" width="10" height="10" transform="rotate(0,280,120)"/><rect x="275" y="125" width="10" height="10" transform="rotate(0,280,130)"/><rect x="275" y="145" width="10" height="10" transform="rotate(0,280,150)"/><rect x="275" y="165" width="10" height="10" transform="rotate(0,280,170)"/><rect x="275" y="175" width="10" height="10" transform="rotate(0,280,180)"/><rect x="275" y="205" width="10" height="10" transform="rotate(0,280,210)"/><rect x="275" y="235" width="10" height="10" transform="rotate(0,280,240)"/><rect x="275" y="255" width="10" height="10" transform="rotate(0,280,260)"/><rect x="275" y="275" width="10" height="10" transform="rotate(0,280,280)"/><rect x="285" y="105" width="10" height="10" transform="rotate(0,290,110)"/><rect x="285" y="135" width="10" height="10" transform="rotate(0,290,140)"/><rect x="285" y="155" width="10" height="10" transform="rotate(0,290,160)"/><rect x="285" y="175" width="10" height="10" transform="rotate(0,290,180)"/><rect x="285" y="205" width="10" height="10" transform="rotate(0,290,210)"/><rect x="285" y="215" width="10" height="10" transform="rotate(0,290,220)"/><rect x="285" y="245" width="10" height="10" transform="rotate(0,290,250)"/><rect x="285" y="275" width="10" height="10" transform="rotate(0,290,280)"/><path clip-rule="evenodd" d="M 5 5v 70h 70v -70zM 15 15h 50v 50h -50z" transform="rotate(0,40,40)"/><rect x="25" y="25" width="10" height="10" transform="rotate(0,30,30)"/><rect x="25" y="35" width="10" height="10" transform="rotate(0,30,40)"/><rect x="25" y="45" width="10" height="10" transform="rotate(0,30,50)"/><rect x="35" y="25" width="10" height="10" transform="rotate(0,40,30)"/><rect x="35" y="35" width="10" height="10" transform="rotate(0,40,40)"/><rect x="35" y="45" width="10" height="10" transform="rotate(0,40,50)"/><rect x="45" y="25" width="10" height="10" transform="rotate(0,50,30)"/><rect x="45" y="35" width="10" height="10" transform="rotate(0,50,40)"/><rect x="45" y="45" width="10" height="10" transform="rotate(0,50,50)"/><path clip-rule="evenodd" d="M 225 5v 70h 70v -70zM 235 15h 50v 50h -50z" transform="rotate(90,260,40)"/><rect x="245" y="25" width="10" height="10" transform="rotate(0,250,30)"/><rect x="245" y="35" width="10" height="10" transform="rotate(0,250,40)"/><rect x="245" y="45" width="10" height="10" transform="rotate(0,250,50)"/><rect x="255" y="25" width="10" height="10" transform="rotate(0,260,30)"/><rect x="255" y="35" width="10" height="10" transform="rotate(0,260,40)"/><rect x="255" y="45" width="10" height="10" transform="rotate(0,260,50)"/><rect x="265" y="25" width="10" height="10" transform="rotate(0,270,30)"/><rect x="265" y="35" width="10" height="10" transform="rotate(0,270,40)"/><rect x="265" y="45" width="10" height="10" transform="rotate(0,270,50)"/><path clip-rule="evenodd" d="M 5 225v 70h 70v -70zM 15 235h 50v 50h -50z" transform="rotate(-90,40,260)"/><rect x="25" y="245" width="10" height="10" transform="rotate(0,30,250)"/><rect x="25" y="255" width="10" height="10" transform="rotate(0,30,260)"/><rect x="25" y="265" width="10" height="10" transform="rotate(0,30,270)"/><rect x="35" y="245" width="10" height="10" transform="rotate(0,40,250)"/><rect x="35" y="255" width="10" height="10" transform="rotate(0,40,260)"/><rect x="35" y="265" width="10" height="10" transform="rotate(0,40,270)"/><rect x="45" y="245" width="10" height="10" transform="rotate(0,50,250)"/><rect x="45" y="255" width="10" height="10" transform="rotate(0,50,260)"/><rect x="45" y="265" width="10" height="10" transform="rotate(0,50,270)"/></clipPath></defs><rect x="0" y="0" height="300" width="300" clip-path="url('#clip-path-background-color')" fill="#fff"/><rect x="0" y="0" height="300" width="300" clip-path="url('#clip-path-dot-color')" fill="#000000"/></svg>